<svg id="visual" viewBox="0 0 900 600" width="900" height="600" xmlns="http://www.w3.org/2000/svg" xmlns:xlink="http://www.w3.org/1999/xlink" version="1.1"><rect x="0" y="0" width="900" height="600" fill="#001220"></rect><path d="M0 423L21.5 419.3C43 415.7 86 408.3 128.8 398.3C171.7 388.3 214.3 375.7 257.2 376.5C300 377.3 343 391.7 385.8 404.3C428.7 417 471.3 428 514.2 428.5C557 429 600 419 642.8 416.7C685.7 414.3 728.3 419.7 771.2 421C814 422.3 857 419.7 878.5 418.3L900 417L900 601L878.5 601C857 601 814 601 771.2 601C728.3 601 685.7 601 642.8 601C600 601 557 601 514.2 601C471.3 601 428.7 601 385.8 601C343 601 300 601 257.2 601C214.3 601 171.7 601 128.8 601C86 601 43 601 21.5 601L0 601Z" fill="#c62368"></path><path d="M0 475L21.5 464C43 453 86 431 128.8 430.7C171.7 430.3 214.3 451.7 257.2 461.3C300 471 343 469 385.8 467C428.7 465 471.3 463 514.2 464.7C557 466.3 600 471.7 642.8 467.7C685.7 463.7 728.3 450.3 771.2 442.5C814 434.7 857 432.3 878.5 431.2L900 430L900 601L878.5 601C857 601 814 601 771.2 601C728.3 601 685.7 601 642.8 601C600 601 557 601 514.2 601C471.3 601 428.7 601 385.8 601C343 601 300 601 257.2 601C214.3 601 171.7 601 128.8 601C86 601 43 601 21.5 601L0 601Z" fill="#d53867"></path><path d="M0 456L21.5 460C43 464 86 472 128.8 472.7C171.7 473.3 214.3 466.7 257.2 468.5C300 470.3 343 480.7 385.8 484.7C428.7 488.7 471.3 486.3 514.2 483.5C557 480.7 600 477.3 642.8 474.3C685.7 471.3 728.3 468.7 771.2 470.7C814 472.7 857 479.3 878.5 482.7L900 486L900 601L878.5 601C857 601 814 601 771.2 601C728.3 601 685.7 601 642.8 601C600 601 557 601 514.2 601C471.3 601 428.7 601 385.8 601C343 601 300 601 257.2 601C214.3 601 171.7 601 128.8 601C86 601 43 601 21.5 601L0 601Z" fill="#e34c67"></path><path d="M0 488L21.5 496.3C43 504.7 86 521.3 128.8 526.2C171.7 531 214.3 524 257.2 524.7C300 525.3 343 533.7 385.8 537.7C428.7 541.7 471.3 541.3 514.2 533.3C557 525.3 600 509.7 642.8 500.8C685.7 492 728.3 490 771.2 489.2C814 488.3 857 488.7 878.5 488.8L900 489L900 601L878.5 601C857 601 814 601 771.2 601C728.3 601 685.7 601 642.8 601C600 601 557 601 514.2 601C471.3 601 428.7 601 385.8 601C343 601 300 601 257.2 601C214.3 601 171.7 601 128.8 601C86 601 43 601 21.5 601L0 601Z" fill="#ef5f67"></path><path d="M0 567L21.5 563.3C43 559.7 86 552.3 128.8 550C171.7 547.7 214.3 550.3 257.2 551.7C300 553 343 553 385.8 550.5C428.7 548 471.3 543 514.2 543.5C557 544 600 550 642.8 551.5C685.7 553 728.3 550 771.2 550.2C814 550.3 857 553.7 878.5 555.3L900 557L900 601L878.5 601C857 601 814 601 771.2 601C728.3 601 685.7 601 642.8 601C600 601 557 601 514.2 601C471.3 601 428.7 601 385.8 601C343 601 300 601 257.2 601C214.3 601 171.7 601 128.8 601C86 601 43 601 21.5 601L0 601Z" fill="#fa7268"></path></svg>