<svg id="visual" viewBox="0 0 900 600" width="900" height="600" xmlns="http://www.w3.org/2000/svg" xmlns:xlink="http://www.w3.org/1999/xlink" version="1.1"><rect x="0" y="0" width="900" height="600" fill="#001220"></rect><path d="M0 410L21.5 411.3C43 412.7 86 415.3 128.8 412.3C171.7 409.3 214.3 400.7 257.2 404.3C300 408 343 424 385.8 426.8C428.7 429.7 471.3 419.3 514.2 406.5C557 393.7 600 378.3 642.8 371.3C685.7 364.3 728.3 365.7 771.2 370.3C814 375 857 383 878.5 387L900 391L900 601L878.5 601C857 601 814 601 771.2 601C728.3 601 685.7 601 642.8 601C600 601 557 601 514.2 601C471.3 601 428.7 601 385.8 601C343 601 300 601 257.2 601C214.3 601 171.7 601 128.8 601C86 601 43 601 21.5 601L0 601Z" fill="#c62368"></path><path d="M0 434L21.5 433C43 432 86 430 128.8 430.8C171.7 431.7 214.3 435.3 257.2 436.3C300 437.3 343 435.7 385.8 432.7C428.7 429.7 471.3 425.3 514.2 421.8C557 418.3 600 415.7 642.8 416.5C685.7 417.3 728.3 421.7 771.2 421.3C814 421 857 416 878.5 413.5L900 411L900 601L878.5 601C857 601 814 601 771.2 601C728.3 601 685.7 601 642.8 601C600 601 557 601 514.2 601C471.3 601 428.7 601 385.8 601C343 601 300 601 257.2 601C214.3 601 171.7 601 128.8 601C86 601 43 601 21.5 601L0 601Z" fill="#d53867"></path><path d="M0 470L21.5 468.8C43 467.7 86 465.3 128.8 465.2C171.7 465 214.3 467 257.2 467.2C300 467.3 343 465.7 385.8 464.5C428.7 463.3 471.3 462.7 514.2 468.2C557 473.7 600 485.3 642.8 484.5C685.7 483.7 728.3 470.3 771.2 465C814 459.7 857 462.3 878.5 463.7L900 465L900 601L878.5 601C857 601 814 601 771.2 601C728.3 601 685.7 601 642.8 601C600 601 557 601 514.2 601C471.3 601 428.7 601 385.8 601C343 601 300 601 257.2 601C214.3 601 171.7 601 128.8 601C86 601 43 601 21.5 601L0 601Z" fill="#e34c67"></path><path d="M0 512L21.5 513.8C43 515.7 86 519.3 128.8 520.7C171.7 522 214.3 521 257.2 523C300 525 343 530 385.8 528C428.7 526 471.3 517 514.2 512.5C557 508 600 508 642.8 511.5C685.7 515 728.3 522 771.2 526.7C814 531.3 857 533.7 878.5 534.8L900 536L900 601L878.5 601C857 601 814 601 771.2 601C728.3 601 685.7 601 642.8 601C600 601 557 601 514.2 601C471.3 601 428.7 601 385.8 601C343 601 300 601 257.2 601C214.3 601 171.7 601 128.8 601C86 601 43 601 21.5 601L0 601Z" fill="#ef5f67"></path><path d="M0 570L21.5 570.3C43 570.7 86 571.3 128.8 567.5C171.7 563.7 214.3 555.3 257.2 549.2C300 543 343 539 385.8 537.7C428.7 536.3 471.3 537.7 514.2 543C557 548.3 600 557.7 642.8 557C685.7 556.3 728.3 545.7 771.2 545.8C814 546 857 557 878.5 562.5L900 568L900 601L878.5 601C857 601 814 601 771.2 601C728.3 601 685.7 601 642.8 601C600 601 557 601 514.2 601C471.3 601 428.7 601 385.8 601C343 601 300 601 257.2 601C214.3 601 171.7 601 128.8 601C86 601 43 601 21.5 601L0 601Z" fill="#fa7268"></path></svg>